inDegrees=no
num_controls=7
num_derivatives=13
num_iterations=75
num_multipliers=7
num_parameters=0
num_slacks=7
num_states=26
objective=0.332463
objective_accelerations=0.039147
objective_balance=0.001379
objective_effort=0.028664
objective_height=0.261790
objective_ligament=0.001483
solver_duration=819.112612
status=Solve_Succeeded
success=true
DataType=double
version=3
OpenSimVersion=4.5
endheader
time	/jointset/ground_pelvis/pelvis_tilt/value	/jointset/ground_pelvis/pelvis_tx/value	/jointset/ground_pelvis/pelvis_ty/value	/jointset/hip_r/hip_flexion_r/value	/jointset/hip_r/hip_adduction_r/value	/jointset/hip_r/hip_rotation_r/value	/jointset/back/lumbar_extension/value	/jointset/patellofemoral_r/patellar_flexion_r/value	/jointset/knee_r/knee_flexion_r/value	/jointset/knee_r/knee_adduction_r/value	/jointset/knee_r/knee_rotation_r/value	/jointset/ankle_r/ankle_angle_r/value	/jointset/subtalar_r/subtalar_angle_r/value	/jointset/ground_pelvis/pelvis_tilt/speed	/jointset/ground_pelvis/pelvis_tx/speed	/jointset/ground_pelvis/pelvis_ty/speed	/jointset/hip_r/hip_flexion_r/speed	/jointset/hip_r/hip_adduction_r/speed	/jointset/hip_r/hip_rotation_r/speed	/jointset/back/lumbar_extension/speed	/jointset/patellofemoral_r/patellar_flexion_r/speed	/jointset/knee_r/knee_flexion_r/speed	/jointset/knee_r/knee_adduction_r/speed	/jointset/knee_r/knee_rotation_r/speed	/jointset/ankle_r/ankle_angle_r/speed	/jointset/subtalar_r/subtalar_angle_r/speed	/forceset/tau_hip_flexion_r	/forceset/tau_hip_adduction_r	/forceset/tau_hip_rotation_r	/forceset/tau_knee_flexion_r	/forceset/tau_ankle_angle_r	/forceset/tau_subtalar_angle_r	/forceset/tau_lumbar_extension	lambda_cid13_p0	lambda_cid14_p0	lambda_cid14_p1	lambda_cid14_p2	lambda_cid14_p3	lambda_cid14_p4	lambda_cid14_p5	/jointset/ground_pelvis/pelvis_tilt/accel	/jointset/ground_pelvis/pelvis_tx/accel	/jointset/ground_pelvis/pelvis_ty/accel	/jointset/hip_r/hip_flexion_r/accel	/jointset/hip_r/hip_adduction_r/accel	/jointset/hip_r/hip_rotation_r/accel	/jointset/back/lumbar_extension/accel	/jointset/patellofemoral_r/patellar_flexion_r/accel	/jointset/knee_r/knee_flexion_r/accel	/jointset/knee_r/knee_adduction_r/accel	/jointset/knee_r/knee_rotation_r/accel	/jointset/ankle_r/ankle_angle_r/accel	/jointset/subtalar_r/subtalar_angle_r/accel	gamma_cid13_p0	gamma_cid14_p0	gamma_cid14_p1	gamma_cid14_p2	gamma_cid14_p3	gamma_cid14_p4	gamma_cid14_p5
1	-0.3095618507214386	-0.01518289087283401	0.6074289791900443	1.558902623299879	-0.2395309826116292	-0.07231673125800502	-0.7853870543696861	1.565401991909642	1.565401991909642	-0.1745272333556662	0.1725739477117043	0.4361939096460821	0.1730781070493904	0.07086168991407292	0.006498188989694564	0.01701007612543458	-0.1056962761296654	-0.001016927690525701	-0.002687260604372859	0.0002878001631892134	-0.01897818461255711	-0.01897818461255718	0.003526520309554508	-0.0009284061476323355	0.01595248674744675	0.006289381311630488	-0.3842349402101078	0.04466811192424061	0.00507775796876366	-0.4413922189386574	-0.04451422350720752	9.166863882898178e-05	0.3862975345529108	-0.04039490849410544	-67.24856441014219	-16.57352542093864	8.591052617077494	8.77224828690515	-782.4771077926451	53.33345338710941	1.393069043169738	0.147451443161757	2.026009176420512	-6.019639833970509	0.2432079410050735	-0.398659615120048	0.02229940342390688	-5.390704977968615	-5.390704977968544	1.006917586484898	-0.0365578068881553	-0.9538818584288428	-0.01789981599478834	4.316099684167191e-09	8.630084273628359e-09	3.355725890350815e-08	3.496528729937146e-08	-8.240082592399752e-09	-6.268456351168877e-09	6.955588798747768e-08
1.01	-0.3087842609008503	-0.01511036263959786	0.6077000928907705	1.557545734306595	-0.239529257605067	-0.07236166363992222	-0.785380769048612	1.564943569893435	1.564943569893436	-0.1744396076720258	0.1725631166339027	0.4363060845896584	0.1731397301231245	0.08465309456376183	0.008028902298223709	0.03719593607175582	-0.1656623349002609	0.001334685742960203	-0.006381610003474219	0.001124580360636625	-0.07265664987314129	-0.0726566498731413	0.01393439559890206	-0.001180070918059801	0.006520950703913501	0.006005077526652186	-0.3849129347409606	0.04463741470366201	0.005079861639059738	-0.4408506363415105	-0.04497585039323385	0.0001608494129036831	0.3872162536757432	-0.04038294631859723	-67.38876126923053	-16.55271556458976	8.570245052199409	8.551657415055038	-782.6381694021273	53.31252003326655	1.371702944135228	0.1590942590869501	2.012362280473944	-5.982207130695654	0.2270635349854369	-0.3671766387011237	0.1376647742607835	-5.348984297129685	-5.348984297129723	1.04808833890625	-0.01078361514865016	-0.932021964133294	-0.03819408887885524	1.147949423058942e-08	2.182275791283608e-08	8.867902522499957e-08	9.398330651833981e-08	-1.845538953703631e-08	-1.457143384937902e-08	1.856101655665048e-07
1.02	-0.3078688516801117	-0.01502188467639873	0.6081725627663069	1.555589761079186	-0.2395048313660769	-0.07244601032310945	-0.7853614564362932	1.563949849825218	1.563949849825218	-0.1742498300677426	0.1725515063477912	0.4363250976754359	0.1731976104731829	0.09842556994412129	0.009688134982291329	0.05728131108751654	-0.2255131229545198	0.003523318795049626	-0.01057012085838224	0.002893258412099134	-0.1260377950147804	-0.1260377950147807	0.02395690443812198	-0.001084247809622618	-0.002679884812302245	0.005540836576493704	-0.3855909292718134	0.04460671748308342	0.005081965309355787	-0.4403090537443636	-0.04543747727926017	0.0002300301869784272	0.3881349727985757	-0.04037777371341823	-67.53580238123641	-16.52777026090318	8.542685260783525	8.330160013665045	-782.9152335821481	53.32842347768003	1.389283189303848	0.173155318269452	2.005912190308408	-5.996585690703171	0.210611864725777	-0.4974919062813795	0.2086789742269256	-5.331240954179597	-5.331240954179603	0.9298442964603368	0.0329397688856705	-0.9077417529626748	-0.05388724903082592	1.531233423240383e-08	2.520885599589029e-08	1.036484826952203e-07	1.168465717159726e-07	-1.816267852460558e-08	-2.194563919798922e-08	2.276612387263015e-07
1.03	-0.3068154153890497	-0.01491621423774312	0.6088454857455576	1.553035357545298	-0.2394592623162797	-0.07257342670015565	-0.785320691622774	1.562423547294387	1.562423547294387	-0.1739604285371207	0.1725423313005192	0.436252967473796	0.1732499031386945	0.1122998873592106	0.01146337278586638	0.0772969775142084	-0.2854006675092065	0.005570755279723112	-0.01486263873479421	0.005324330655611841	-0.179198430842384	-0.1791984308423845	0.0339956317433881	-0.0007208568161572925	-0.01173565984787792	0.004884127673296702	-0.3858097327958967	0.04465484464503294	0.005200731676429664	-0.4398407580811791	-0.04576969110436398	0.0002474901302529856	0.3886363402589436	-0.04038877805658871	-67.64053238965506	-16.52350571470004	8.524850063770272	8.229703795512458	-783.0131450463891	53.32269786381872	1.392241521898204	0.1823174668321976	1.998441874879602	-5.989796142959037	0.1988667717227847	-0.3875449244010769	0.2700153039932594	-5.304836695961319	-5.304836695961328	1.051718088794909	0.04256295205689053	-0.902920780983441	-0.0765631151903268	1.911118898376305e-08	2.849488698143267e-08	1.18208222728183e-07	1.393409108521629e-07	-1.776274283914349e-08	-2.931036727976676e-08	2.68957177147126e-07
